<svg xmlns="http://www.w3.org/2000/svg" xmlns:xlink="http://www.w3.org/1999/xlink" zoomAndPan="magnify" viewBox="0 0 1500 1499.999933" preserveAspectRatio="xMidYMid meet" version="1.0"><defs><g/><clipPath id="74fc68ae9a"><path d="M 124.804688 690 L 234 690 L 234 784 L 124.804688 784 Z M 124.804688 690 " clip-rule="nonzero"/></clipPath><clipPath id="c3330fc90c"><path d="M 236 577.964844 L 331 577.964844 L 331 673 L 236 673 Z M 236 577.964844 " clip-rule="nonzero"/></clipPath><clipPath id="25a740fd1a"><path d="M 268 690 L 442.804688 690 L 442.804688 896 L 268 896 Z M 268 690 " clip-rule="nonzero"/></clipPath><clipPath id="7b6e0f98d0"><path d="M 168 635 L 388 635 L 388 922.214844 L 168 922.214844 Z M 168 635 " clip-rule="nonzero"/></clipPath></defs><g clip-path="url(#74fc68ae9a)"><path fill="#18aab0" d="M 163.8125 690.832031 C 141.71875 694.597656 124.933594 713.949219 124.933594 736.90625 L 124.933594 783.828125 L 233.34375 783.828125 C 230.949219 764.644531 223.582031 746.316406 211.078125 731.417969 C 207.820312 727.480469 204.054688 723.878906 200.117188 720.457031 Z M 163.8125 690.832031 " fill-opacity="1" fill-rule="evenodd"/></g><g clip-path="url(#c3330fc90c)"><path fill="#18aab0" d="M 330.628906 647.839844 L 330.628906 624.894531 C 330.628906 599.203125 309.5625 577.964844 283.703125 577.964844 L 236.945312 577.964844 L 236.945312 633.796875 C 242.253906 631.570312 248.25 630.203125 254.414062 630.203125 C 278.222656 630.203125 297.746094 648.703125 299.117188 672.164062 C 309.21875 663.429688 319.667969 655.378906 330.628906 647.839844 Z M 330.628906 647.839844 " fill-opacity="1" fill-rule="evenodd"/></g><g clip-path="url(#25a740fd1a)"><path fill="#86c442" d="M 283.703125 895.839844 L 330.628906 895.839844 L 330.628906 783.828125 L 395.886719 783.828125 C 421.574219 783.828125 442.644531 762.757812 442.644531 736.898438 L 442.644531 690.140625 L 351.007812 690.140625 C 339.359375 705.214844 330.628906 722.507812 324.632812 743.40625 C 314.871094 777.3125 314.015625 813.453125 300.996094 846.335938 C 293.292969 865.6875 282.332031 881.105469 268.96875 893.433594 C 273.59375 894.984375 278.558594 895.839844 283.703125 895.839844 Z M 283.703125 895.839844 " fill-opacity="1" fill-rule="evenodd"/></g><g clip-path="url(#7b6e0f98d0)"><path fill="#18aab0" d="M 387.832031 635.164062 C 232.316406 736.214844 372.933594 874.605469 168.433594 922.214844 C 267.253906 875.804688 271.707031 757.628906 210.5625 707.617188 L 270.335938 726.28125 C 270.335938 726.28125 313.15625 667.367188 387.832031 635.164062 Z M 387.832031 635.164062 " fill-opacity="1" fill-rule="evenodd"/></g><path fill="#86c442" d="M 254.414062 646.816406 C 270 646.816406 282.667969 659.488281 282.667969 675.070312 C 282.667969 690.652344 269.992188 703.160156 254.414062 703.160156 C 238.832031 703.160156 226.320312 690.660156 226.320312 675.070312 C 226.320312 659.484375 238.824219 646.816406 254.414062 646.816406 Z M 254.414062 646.816406 " fill-opacity="1" fill-rule="evenodd"/><g fill="#18aab0" fill-opacity="1"><g transform="translate(467.711266, 825.281165)"><g><path d="M 107.828125 0 L 107.828125 -40.203125 C 107.828125 -45.179688 108.015625 -50.289062 108.390625 -55.53125 C 108.765625 -60.769531 109.164062 -65.171875 109.59375 -68.734375 C 110.03125 -72.304688 110.304688 -74.582031 110.421875 -75.5625 L 109.765625 -75.5625 L 89.171875 0 L 61.125 0 L 40.375 -75.390625 L 39.71875 -75.390625 C 39.832031 -74.421875 40.128906 -72.175781 40.609375 -68.65625 C 41.097656 -65.144531 41.554688 -60.769531 41.984375 -55.53125 C 42.421875 -50.289062 42.640625 -45.179688 42.640625 -40.203125 L 42.640625 0 L 9.734375 0 L 9.734375 -111.546875 L 60.3125 -111.546875 L 77.171875 -47.1875 L 77.828125 -47.1875 L 94.53125 -111.546875 L 143.328125 -111.546875 L 143.328125 0 Z M 107.828125 0 "/></g></g></g><g fill="#18aab0" fill-opacity="1"><g transform="translate(624.01483, 825.281165)"><g><path d="M 54 -87.5625 C 69.664062 -87.5625 81.632812 -83.882812 89.90625 -76.53125 C 98.175781 -69.175781 102.3125 -57.9375 102.3125 -42.8125 L 102.3125 -37.296875 L 38.109375 -37.296875 C 38.109375 -31.128906 39.484375 -26.476562 42.234375 -23.34375 C 44.992188 -20.207031 49.347656 -18.640625 55.296875 -18.640625 C 60.691406 -18.640625 64.660156 -19.773438 67.203125 -22.046875 C 69.742188 -24.316406 71.015625 -27.34375 71.015625 -31.125 L 102.3125 -31.125 C 102.3125 -20.75 98.363281 -12.640625 90.46875 -6.796875 C 82.582031 -0.960938 71.070312 1.953125 55.9375 1.953125 C 40.050781 1.953125 27.726562 -1.75 18.96875 -9.15625 C 10.21875 -16.5625 5.84375 -27.78125 5.84375 -42.8125 C 5.84375 -57.507812 10.109375 -68.640625 18.640625 -76.203125 C 27.179688 -83.773438 38.96875 -87.5625 54 -87.5625 Z M 55.296875 -66.96875 C 45.128906 -66.96875 39.453125 -62.15625 38.265625 -52.53125 L 69.71875 -52.53125 C 69.71875 -56.96875 68.445312 -60.484375 65.90625 -63.078125 C 63.363281 -65.671875 59.828125 -66.96875 55.296875 -66.96875 Z M 55.296875 -66.96875 "/></g></g></g><g fill="#18aab0" fill-opacity="1"><g transform="translate(735.405442, 825.281165)"><g><path d="M 71.984375 0 L 69.234375 -12.15625 C 62.960938 -2.75 53.882812 1.953125 42 1.953125 C 30.425781 1.953125 21.503906 -1.828125 15.234375 -9.390625 C 8.972656 -16.960938 5.84375 -28.15625 5.84375 -42.96875 C 5.84375 -57.664062 8.972656 -68.769531 15.234375 -76.28125 C 21.503906 -83.800781 30.425781 -87.5625 42 -87.5625 C 51.832031 -87.5625 59.828125 -84.265625 65.984375 -77.671875 L 65.984375 -117.546875 L 98.25 -117.546875 L 98.25 0 Z M 52.046875 -63.71875 C 42.753906 -63.71875 38.109375 -58.148438 38.109375 -47.015625 L 38.109375 -38.421875 C 38.109375 -27.398438 42.753906 -21.890625 52.046875 -21.890625 C 56.804688 -21.890625 60.375 -23.5625 62.75 -26.90625 C 65.125 -30.257812 66.3125 -34.640625 66.3125 -40.046875 L 66.3125 -45.40625 C 66.3125 -50.800781 65.125 -55.203125 62.75 -58.609375 C 60.375 -62.015625 56.804688 -63.71875 52.046875 -63.71875 "/></g></g></g><g fill="#18aab0" fill-opacity="1"><g transform="translate(846.796088, 825.281165)"><g><path d="M 10.859375 -95.65625 L 10.859375 -117.546875 L 43.125 -117.546875 L 43.125 -95.65625 Z M 10.859375 0 L 10.859375 -85.609375 L 43.125 -85.609375 L 43.125 0 Z M 10.859375 0 "/></g></g></g><g fill="#86c442" fill-opacity="1"><g transform="translate(904.035447, 825.281165)"><g><path d="M 12 -111.546875 L 108.46875 -111.546875 L 108.46875 -84.796875 L 47.828125 -84.796875 L 47.828125 -69.390625 L 99.71875 -69.390625 L 99.71875 -43.78125 L 47.828125 -43.78125 L 47.828125 -26.75 L 109.609375 -26.75 L 109.609375 0 L 12 0 Z M 12 -111.546875 "/></g></g></g><g fill="#86c442" fill-opacity="1"><g transform="translate(1024.343798, 825.281165)"><g><path d="M 52.046875 -87.5625 C 65.128906 -87.5625 75.773438 -85.367188 83.984375 -80.984375 C 92.203125 -76.609375 96.3125 -69.503906 96.3125 -59.671875 L 96.3125 -26.265625 C 96.3125 -24.429688 96.742188 -22.914062 97.609375 -21.71875 C 98.472656 -20.53125 99.769531 -19.9375 101.5 -19.9375 L 107.34375 -19.9375 L 107.34375 -1.296875 C 107.007812 -1.078125 106.164062 -0.722656 104.8125 -0.234375 C 103.46875 0.242188 101.550781 0.726562 99.0625 1.21875 C 96.582031 1.707031 93.71875 1.953125 90.46875 1.953125 C 84.195312 1.953125 79.035156 1.003906 74.984375 -0.890625 C 70.929688 -2.785156 68.148438 -5.40625 66.640625 -8.75 C 62.535156 -5.507812 57.941406 -2.914062 52.859375 -0.96875 C 47.773438 0.976562 41.828125 1.953125 35.015625 1.953125 C 14.910156 1.953125 4.859375 -6.046875 4.859375 -22.046875 C 4.859375 -30.367188 7.101562 -36.71875 11.59375 -41.09375 C 16.082031 -45.476562 22.539062 -48.476562 30.96875 -50.09375 C 39.394531 -51.71875 50.421875 -52.53125 64.046875 -52.53125 L 64.046875 -56.75 C 64.046875 -60.101562 62.882812 -62.644531 60.5625 -64.375 C 58.238281 -66.101562 55.238281 -66.96875 51.5625 -66.96875 C 48.207031 -66.96875 45.3125 -66.367188 42.875 -65.171875 C 40.445312 -63.984375 39.234375 -62.09375 39.234375 -59.5 L 39.234375 -58.859375 L 7.453125 -58.859375 C 7.347656 -59.398438 7.296875 -60.15625 7.296875 -61.125 C 7.296875 -69.226562 11.160156 -75.660156 18.890625 -80.421875 C 26.617188 -85.179688 37.671875 -87.5625 52.046875 -87.5625 Z M 64.046875 -37.296875 C 54.859375 -37.296875 48.070312 -36.296875 43.6875 -34.296875 C 39.3125 -32.296875 37.125 -29.617188 37.125 -26.265625 C 37.125 -20.859375 40.800781 -18.15625 48.15625 -18.15625 C 52.375 -18.15625 56.078125 -19.289062 59.265625 -21.5625 C 62.453125 -23.832031 64.046875 -26.644531 64.046875 -30 Z M 64.046875 -37.296875 "/></g></g></g><g fill="#86c442" fill-opacity="1"><g transform="translate(1135.734433, 825.281165)"><g><path d="M 50.421875 -87.5625 C 61.878906 -87.5625 71.582031 -85.316406 79.53125 -80.828125 C 87.476562 -76.335938 91.453125 -69.390625 91.453125 -59.984375 L 61.453125 -59.984375 C 61.453125 -63.117188 60.046875 -65.335938 57.234375 -66.640625 C 55.285156 -67.722656 52.851562 -68.265625 49.9375 -68.265625 C 42.15625 -68.265625 38.265625 -66.425781 38.265625 -62.75 C 38.265625 -60.695312 39.613281 -59.238281 42.3125 -58.375 C 45.019531 -57.507812 49.453125 -56.585938 55.609375 -55.609375 C 63.179688 -54.535156 69.503906 -53.265625 74.578125 -51.796875 C 79.660156 -50.335938 84.09375 -47.742188 87.875 -44.015625 C 91.664062 -40.285156 93.5625 -35.070312 93.5625 -28.375 C 93.5625 -17.457031 89.476562 -9.671875 81.3125 -5.015625 C 73.15625 -0.367188 62.484375 1.953125 49.296875 1.953125 C 41.722656 1.953125 34.582031 0.898438 27.875 -1.203125 C 21.175781 -3.316406 15.71875 -6.585938 11.5 -11.015625 C 7.289062 -15.453125 5.1875 -21.078125 5.1875 -27.890625 L 35.1875 -27.890625 L 35.1875 -27.234375 C 35.289062 -23.566406 36.828125 -21 39.796875 -19.53125 C 42.773438 -18.070312 45.941406 -17.34375 49.296875 -17.34375 C 58.265625 -17.34375 62.75 -19.453125 62.75 -23.671875 C 62.75 -25.835938 61.34375 -27.40625 58.53125 -28.375 C 55.71875 -29.34375 51.125 -30.367188 44.75 -31.453125 C 37.070312 -32.753906 30.773438 -34.160156 25.859375 -35.671875 C 20.941406 -37.179688 16.644531 -39.742188 12.96875 -43.359375 C 9.289062 -46.984375 7.453125 -52.039062 7.453125 -58.53125 C 7.453125 -69.019531 11.425781 -76.476562 19.375 -80.90625 C 27.320312 -85.34375 37.671875 -87.5625 50.421875 -87.5625 Z M 50.421875 -87.5625 "/></g></g></g><g fill="#86c442" fill-opacity="1"><g transform="translate(1238.045154, 825.281165)"><g><path d="M 54 -87.5625 C 69.664062 -87.5625 81.632812 -83.882812 89.90625 -76.53125 C 98.175781 -69.175781 102.3125 -57.9375 102.3125 -42.8125 L 102.3125 -37.296875 L 38.109375 -37.296875 C 38.109375 -31.128906 39.484375 -26.476562 42.234375 -23.34375 C 44.992188 -20.207031 49.347656 -18.640625 55.296875 -18.640625 C 60.691406 -18.640625 64.660156 -19.773438 67.203125 -22.046875 C 69.742188 -24.316406 71.015625 -27.34375 71.015625 -31.125 L 102.3125 -31.125 C 102.3125 -20.75 98.363281 -12.640625 90.46875 -6.796875 C 82.582031 -0.960938 71.070312 1.953125 55.9375 1.953125 C 40.050781 1.953125 27.726562 -1.75 18.96875 -9.15625 C 10.21875 -16.5625 5.84375 -27.78125 5.84375 -42.8125 C 5.84375 -57.507812 10.109375 -68.640625 18.640625 -76.203125 C 27.179688 -83.773438 38.96875 -87.5625 54 -87.5625 Z M 55.296875 -66.96875 C 45.128906 -66.96875 39.453125 -62.15625 38.265625 -52.53125 L 69.71875 -52.53125 C 69.71875 -56.96875 68.445312 -60.484375 65.90625 -63.078125 C 63.363281 -65.671875 59.828125 -66.96875 55.296875 -66.96875 Z M 55.296875 -66.96875 "/></g></g></g></svg>