<svg xmlns="http://www.w3.org/2000/svg" xmlns:xlink="http://www.w3.org/1999/xlink" width="2000" zoomAndPan="magnify" viewBox="0 0 1500 1499.999933" height="2000" preserveAspectRatio="xMidYMid meet" version="1.0"><defs><g/><clipPath id="c129e011b9"><path d="M 454.003906 551 L 656 551 L 656 725 L 454.003906 725 Z M 454.003906 551 " clip-rule="nonzero"/></clipPath><clipPath id="eaedffb3df"><path d="M 662 341.921875 L 838 341.921875 L 838 518 L 662 518 Z M 662 341.921875 " clip-rule="nonzero"/></clipPath><clipPath id="1e7e5ea66f"><path d="M 722 550 L 1045.753906 550 L 1045.753906 934 L 722 934 Z M 722 550 " clip-rule="nonzero"/></clipPath><clipPath id="d9187add6f"><path d="M 535 448 L 944 448 L 944 982.421875 L 535 982.421875 Z M 535 448 " clip-rule="nonzero"/></clipPath></defs><g fill="#18aab0" fill-opacity="1"><g transform="translate(416.96528, 1124.505003)"><g><path d="M 81.75 0 L 81.75 -30.484375 C 81.75 -34.253906 81.890625 -38.125 82.171875 -42.09375 C 82.460938 -46.070312 82.769531 -49.414062 83.09375 -52.125 C 83.425781 -54.832031 83.632812 -56.550781 83.71875 -57.28125 L 83.234375 -57.28125 L 67.609375 0 L 46.34375 0 L 30.609375 -57.171875 L 30.125 -57.171875 C 30.207031 -56.429688 30.429688 -54.726562 30.796875 -52.0625 C 31.160156 -49.394531 31.503906 -46.070312 31.828125 -42.09375 C 32.160156 -38.125 32.328125 -34.253906 32.328125 -30.484375 L 32.328125 0 L 7.375 0 L 7.375 -84.578125 L 45.734375 -84.578125 L 58.515625 -35.78125 L 59.015625 -35.78125 L 71.671875 -84.578125 L 108.671875 -84.578125 L 108.671875 0 Z M 81.75 0 "/></g></g></g><g fill="#18aab0" fill-opacity="1"><g transform="translate(535.469779, 1124.505003)"><g><path d="M 40.9375 -66.390625 C 52.820312 -66.390625 61.898438 -63.601562 68.171875 -58.03125 C 74.441406 -52.457031 77.578125 -43.929688 77.578125 -32.453125 L 77.578125 -28.28125 L 28.890625 -28.28125 C 28.890625 -23.601562 29.929688 -20.078125 32.015625 -17.703125 C 34.109375 -15.328125 37.410156 -14.140625 41.921875 -14.140625 C 46.015625 -14.140625 49.023438 -15 50.953125 -16.71875 C 52.878906 -18.4375 53.84375 -20.734375 53.84375 -23.609375 L 77.578125 -23.609375 C 77.578125 -15.734375 74.582031 -9.582031 68.59375 -5.15625 C 62.613281 -0.738281 53.882812 1.46875 42.40625 1.46875 C 30.363281 1.46875 21.019531 -1.332031 14.375 -6.9375 C 7.738281 -12.550781 4.421875 -21.054688 4.421875 -32.453125 C 4.421875 -43.597656 7.65625 -52.039062 14.125 -57.78125 C 20.601562 -63.519531 29.539062 -66.390625 40.9375 -66.390625 Z M 41.921875 -50.765625 C 34.210938 -50.765625 29.910156 -47.117188 29.015625 -39.828125 L 52.859375 -39.828125 C 52.859375 -43.191406 51.894531 -45.851562 49.96875 -47.8125 C 48.039062 -49.78125 45.359375 -50.765625 41.921875 -50.765625 Z M 41.921875 -50.765625 "/></g></g></g><g fill="#18aab0" fill-opacity="1"><g transform="translate(619.922751, 1124.505003)"><g><path d="M 54.578125 0 L 52.5 -9.21875 C 47.738281 -2.09375 40.851562 1.46875 31.84375 1.46875 C 23.070312 1.46875 16.304688 -1.394531 11.546875 -7.125 C 6.796875 -12.863281 4.421875 -21.347656 4.421875 -32.578125 C 4.421875 -43.722656 6.796875 -52.144531 11.546875 -57.84375 C 16.304688 -63.539062 23.070312 -66.390625 31.84375 -66.390625 C 39.300781 -66.390625 45.363281 -63.890625 50.03125 -58.890625 L 50.03125 -89.125 L 74.5 -89.125 L 74.5 0 Z M 39.46875 -48.3125 C 32.414062 -48.3125 28.890625 -44.09375 28.890625 -35.65625 L 28.890625 -29.140625 C 28.890625 -20.773438 32.414062 -16.59375 39.46875 -16.59375 C 43.070312 -16.59375 45.773438 -17.863281 47.578125 -20.40625 C 49.378906 -22.945312 50.28125 -26.265625 50.28125 -30.359375 L 50.28125 -34.421875 C 50.28125 -38.515625 49.378906 -41.851562 47.578125 -44.4375 C 45.773438 -47.019531 43.070312 -48.3125 39.46875 -48.3125 Z M 39.46875 -48.3125 "/></g></g></g><g fill="#18aab0" fill-opacity="1"><g transform="translate(704.375701, 1124.505003)"><g><path d="M 8.234375 -72.53125 L 8.234375 -89.125 L 32.703125 -89.125 L 32.703125 -72.53125 Z M 8.234375 0 L 8.234375 -64.90625 L 32.703125 -64.90625 L 32.703125 0 Z M 8.234375 0 "/></g></g></g><g fill="#86c442" fill-opacity="1"><g transform="translate(747.773849, 1124.505003)"><g><path d="M 9.09375 -84.578125 L 82.25 -84.578125 L 82.25 -64.296875 L 36.265625 -64.296875 L 36.265625 -52.625 L 75.609375 -52.625 L 75.609375 -33.1875 L 36.265625 -33.1875 L 36.265625 -20.28125 L 83.109375 -20.28125 L 83.109375 0 L 9.09375 0 Z M 9.09375 -84.578125 "/></g></g></g><g fill="#86c442" fill-opacity="1"><g transform="translate(838.987945, 1124.505003)"><g><path d="M 39.46875 -66.390625 C 49.382812 -66.390625 57.457031 -64.726562 63.6875 -61.40625 C 69.914062 -58.082031 73.03125 -52.691406 73.03125 -45.234375 L 73.03125 -19.921875 C 73.03125 -18.523438 73.351562 -17.375 74 -16.46875 C 74.65625 -15.570312 75.640625 -15.125 76.953125 -15.125 L 81.390625 -15.125 L 81.390625 -0.984375 C 81.140625 -0.816406 80.5 -0.546875 79.46875 -0.171875 C 78.445312 0.191406 76.992188 0.554688 75.109375 0.921875 C 73.222656 1.285156 71.050781 1.46875 68.59375 1.46875 C 63.84375 1.46875 59.929688 0.753906 56.859375 -0.671875 C 53.785156 -2.109375 51.675781 -4.097656 50.53125 -6.640625 C 47.414062 -4.179688 43.929688 -2.210938 40.078125 -0.734375 C 36.222656 0.734375 31.710938 1.46875 26.546875 1.46875 C 11.304688 1.46875 3.6875 -4.59375 3.6875 -16.71875 C 3.6875 -23.03125 5.382812 -27.84375 8.78125 -31.15625 C 12.1875 -34.476562 17.082031 -36.753906 23.46875 -37.984375 C 29.863281 -39.210938 38.226562 -39.828125 48.5625 -39.828125 L 48.5625 -43.03125 C 48.5625 -45.570312 47.679688 -47.492188 45.921875 -48.796875 C 44.160156 -50.109375 41.882812 -50.765625 39.09375 -50.765625 C 36.550781 -50.765625 34.359375 -50.3125 32.515625 -49.40625 C 30.671875 -48.507812 29.75 -47.082031 29.75 -45.125 L 29.75 -44.625 L 5.65625 -44.625 C 5.570312 -45.03125 5.53125 -45.601562 5.53125 -46.34375 C 5.53125 -52.488281 8.457031 -57.363281 14.3125 -60.96875 C 20.175781 -64.582031 28.5625 -66.390625 39.46875 -66.390625 Z M 48.5625 -28.28125 C 41.59375 -28.28125 36.445312 -27.519531 33.125 -26 C 29.8125 -24.488281 28.15625 -22.460938 28.15625 -19.921875 C 28.15625 -15.816406 30.941406 -13.765625 36.515625 -13.765625 C 39.710938 -13.765625 42.519531 -14.625 44.9375 -16.34375 C 47.351562 -18.070312 48.5625 -20.207031 48.5625 -22.75 Z M 48.5625 -28.28125 "/></g></g></g><g fill="#86c442" fill-opacity="1"><g transform="translate(923.440906, 1124.505003)"><g><path d="M 38.234375 -66.390625 C 46.921875 -66.390625 54.273438 -64.6875 60.296875 -61.28125 C 66.328125 -57.882812 69.34375 -52.617188 69.34375 -45.484375 L 46.59375 -45.484375 C 46.59375 -47.859375 45.523438 -49.539062 43.390625 -50.53125 C 41.921875 -51.34375 40.078125 -51.75 37.859375 -51.75 C 31.960938 -51.75 29.015625 -50.359375 29.015625 -47.578125 C 29.015625 -46.015625 30.035156 -44.90625 32.078125 -44.25 C 34.128906 -43.601562 37.492188 -42.910156 42.171875 -42.171875 C 47.898438 -41.347656 52.691406 -40.382812 56.546875 -39.28125 C 60.398438 -38.175781 63.757812 -36.207031 66.625 -33.375 C 69.5 -30.550781 70.9375 -26.597656 70.9375 -21.515625 C 70.9375 -13.234375 67.84375 -7.332031 61.65625 -3.8125 C 55.46875 -0.289062 47.375 1.46875 37.375 1.46875 C 31.632812 1.46875 26.222656 0.671875 21.140625 -0.921875 C 16.054688 -2.515625 11.914062 -4.992188 8.71875 -8.359375 C 5.53125 -11.722656 3.9375 -15.984375 3.9375 -21.140625 L 26.671875 -21.140625 L 26.671875 -20.65625 C 26.753906 -17.863281 27.921875 -15.914062 30.171875 -14.8125 C 32.429688 -13.707031 34.832031 -13.15625 37.375 -13.15625 C 44.175781 -13.15625 47.578125 -14.753906 47.578125 -17.953125 C 47.578125 -19.585938 46.507812 -20.773438 44.375 -21.515625 C 42.25 -22.253906 38.769531 -23.03125 33.9375 -23.84375 C 28.113281 -24.832031 23.335938 -25.898438 19.609375 -27.046875 C 15.878906 -28.191406 12.617188 -30.132812 9.828125 -32.875 C 7.046875 -35.625 5.65625 -39.457031 5.65625 -44.375 C 5.65625 -52.332031 8.664062 -57.988281 14.6875 -61.34375 C 20.71875 -64.707031 28.566406 -66.390625 38.234375 -66.390625 Z M 38.234375 -66.390625 "/></g></g></g><g fill="#86c442" fill-opacity="1"><g transform="translate(1001.009789, 1124.505003)"><g><path d="M 40.9375 -66.390625 C 52.820312 -66.390625 61.898438 -63.601562 68.171875 -58.03125 C 74.441406 -52.457031 77.578125 -43.929688 77.578125 -32.453125 L 77.578125 -28.28125 L 28.890625 -28.28125 C 28.890625 -23.601562 29.929688 -20.078125 32.015625 -17.703125 C 34.109375 -15.328125 37.410156 -14.140625 41.921875 -14.140625 C 46.015625 -14.140625 49.023438 -15 50.953125 -16.71875 C 52.878906 -18.4375 53.84375 -20.734375 53.84375 -23.609375 L 77.578125 -23.609375 C 77.578125 -15.734375 74.582031 -9.582031 68.59375 -5.15625 C 62.613281 -0.738281 53.882812 1.46875 42.40625 1.46875 C 30.363281 1.46875 21.019531 -1.332031 14.375 -6.9375 C 7.738281 -12.550781 4.421875 -21.054688 4.421875 -32.453125 C 4.421875 -43.597656 7.65625 -52.039062 14.125 -57.78125 C 20.601562 -63.519531 29.539062 -66.390625 40.9375 -66.390625 Z M 41.921875 -50.765625 C 34.210938 -50.765625 29.910156 -47.117188 29.015625 -39.828125 L 52.859375 -39.828125 C 52.859375 -43.191406 51.894531 -45.851562 49.96875 -47.8125 C 48.039062 -49.78125 45.359375 -50.765625 41.921875 -50.765625 Z M 41.921875 -50.765625 "/></g></g></g><g clip-path="url(#c129e011b9)"><path fill="#18aab0" d="M 526.589844 551.914062 C 485.476562 558.921875 454.242188 594.929688 454.242188 637.640625 L 454.242188 724.941406 L 655.980469 724.941406 C 651.519531 689.25 637.8125 655.152344 614.546875 627.429688 C 608.484375 620.101562 601.476562 613.402344 594.148438 607.035156 Z M 526.589844 551.914062 " fill-opacity="1" fill-rule="evenodd"/></g><g clip-path="url(#eaedffb3df)"><path fill="#18aab0" d="M 837.011719 471.929688 L 837.011719 429.234375 C 837.011719 381.441406 797.808594 341.921875 749.6875 341.921875 L 662.679688 341.921875 L 662.679688 445.796875 C 672.558594 441.660156 683.714844 439.109375 695.183594 439.109375 C 739.488281 439.109375 775.820312 473.53125 778.371094 517.1875 C 797.167969 500.929688 816.613281 485.957031 837.011719 471.929688 Z M 837.011719 471.929688 " fill-opacity="1" fill-rule="evenodd"/></g><g clip-path="url(#1e7e5ea66f)"><path fill="#86c442" d="M 749.6875 933.34375 L 837.011719 933.34375 L 837.011719 724.941406 L 958.445312 724.941406 C 1006.246094 724.941406 1045.449219 685.742188 1045.449219 637.625 L 1045.449219 550.632812 L 874.933594 550.632812 C 853.257812 578.675781 837.011719 610.855469 825.851562 649.730469 C 807.683594 712.820312 806.097656 780.0625 781.871094 841.242188 C 767.53125 877.25 747.136719 905.933594 722.269531 928.875 C 730.878906 931.757812 740.113281 933.34375 749.6875 933.34375 Z M 749.6875 933.34375 " fill-opacity="1" fill-rule="evenodd"/></g><g clip-path="url(#d9187add6f)"><path fill="#18aab0" d="M 943.453125 448.347656 C 654.070312 636.359375 915.730469 893.839844 535.1875 982.421875 C 719.078125 896.070312 727.367188 676.199219 613.585938 583.144531 L 724.816406 617.875 C 724.816406 617.875 804.496094 508.257812 943.453125 448.347656 Z M 943.453125 448.347656 " fill-opacity="1" fill-rule="evenodd"/></g><path fill="#86c442" d="M 695.183594 470.019531 C 724.191406 470.019531 747.765625 493.605469 747.765625 522.59375 C 747.765625 551.582031 724.175781 574.859375 695.183594 574.859375 C 666.191406 574.859375 642.910156 551.59375 642.910156 522.59375 C 642.910156 493.589844 666.175781 470.019531 695.183594 470.019531 Z M 695.183594 470.019531 " fill-opacity="1" fill-rule="evenodd"/></svg>