<svg xmlns="http://www.w3.org/2000/svg" xmlns:xlink="http://www.w3.org/1999/xlink" width="2000" zoomAndPan="magnify" viewBox="0 0 1500 1499.999933" height="2000" preserveAspectRatio="xMidYMid meet" version="1.0"><defs><clipPath id="9ba7d1f9ca"><path d="M 284.582031 576 L 603 576 L 603 849 L 284.582031 849 Z M 284.582031 576 " clip-rule="nonzero"/></clipPath><clipPath id="c4ad8dc9d8"><path d="M 612 246.164062 L 888 246.164062 L 888 522 L 612 522 Z M 612 246.164062 " clip-rule="nonzero"/></clipPath><clipPath id="daa6c9d44e"><path d="M 412 413 L 1055 413 L 1055 1254.164062 L 412 1254.164062 Z M 412 413 " clip-rule="nonzero"/></clipPath></defs><g clip-path="url(#9ba7d1f9ca)"><path fill="#18aab0" d="M 398.757812 576.648438 C 334.089844 587.675781 284.960938 644.34375 284.960938 711.558594 L 284.960938 848.949219 L 602.265625 848.949219 C 595.253906 792.78125 573.691406 739.117188 537.097656 695.492188 C 527.566406 683.957031 516.542969 673.414062 505.015625 663.394531 Z M 398.757812 576.648438 " fill-opacity="1" fill-rule="evenodd"/></g><g clip-path="url(#c4ad8dc9d8)"><path fill="#18aab0" d="M 887.007812 450.769531 L 887.007812 383.574219 C 887.007812 308.359375 825.34375 246.164062 749.65625 246.164062 L 612.804688 246.164062 L 612.804688 409.640625 C 628.34375 403.128906 645.894531 399.117188 663.929688 399.117188 C 733.613281 399.117188 790.761719 453.289062 794.773438 521.992188 C 824.335938 496.410156 854.925781 472.84375 887.007812 450.769531 Z M 887.007812 450.769531 " fill-opacity="1" fill-rule="evenodd"/></g><path fill="#86c442" d="M 749.65625 1176.929688 L 887.007812 1176.929688 L 887.007812 848.949219 L 1078 848.949219 C 1153.1875 848.949219 1214.851562 787.257812 1214.851562 711.539062 L 1214.851562 574.632812 L 946.65625 574.632812 C 912.558594 618.761719 887.007812 669.402344 869.453125 730.589844 C 840.878906 829.875 838.382812 935.695312 800.273438 1031.980469 C 777.726562 1088.652344 745.644531 1133.789062 706.53125 1169.894531 C 720.070312 1174.429688 734.601562 1176.929688 749.65625 1176.929688 Z M 749.65625 1176.929688 " fill-opacity="1" fill-rule="evenodd"/><g clip-path="url(#daa6c9d44e)"><path fill="#18aab0" d="M 1054.425781 413.652344 C 599.265625 709.542969 1010.816406 1114.757812 412.277344 1254.164062 C 701.511719 1118.265625 714.550781 772.238281 535.585938 625.796875 L 710.539062 680.449219 C 710.539062 680.449219 835.863281 507.941406 1054.425781 413.652344 Z M 1054.425781 413.652344 " fill-opacity="1" fill-rule="evenodd"/></g><path fill="#86c442" d="M 663.929688 447.765625 C 709.554688 447.765625 746.632812 484.878906 746.632812 530.5 C 746.632812 576.121094 709.53125 612.753906 663.929688 612.753906 C 618.328125 612.753906 581.710938 576.144531 581.710938 530.5 C 581.710938 484.859375 618.308594 447.765625 663.929688 447.765625 Z M 663.929688 447.765625 " fill-opacity="1" fill-rule="evenodd"/></svg>